<svg width="113" height="163" viewBox="0 0 113 163" fill="none" xmlns="http://www.w3.org/2000/svg">
<g clip-path="url(#clip0_1_278)">
<path opacity="0.7" d="M60.9517 132.488C60.9517 119.376 60.9517 106.476 60.9517 93.5747C60.9517 82.6776 60.9517 71.7805 61.0221 60.8833C61.1629 30.4065 81.2572 6.50313 112.507 0.0351562C112.507 29.4926 113.915 58.9851 112.015 88.2668C110.783 107.249 84.8468 127.953 60.9869 132.523L60.9517 132.488Z" fill="black"/>
<path opacity="0.7" d="M0 61.5864C2.18187 62.2543 5.17316 63.3089 8.65712 64.8556C12.669 66.6483 19.6017 69.7065 25.3379 74.909C32.7985 81.6934 36.2121 90.2002 37.7957 96.3518C38.218 98.2148 38.7459 100.851 39.133 104.085C39.5905 107.917 39.6257 110.834 39.6257 112.768C39.6609 118.744 39.696 121.732 39.6257 129.008C39.5201 140.925 39.872 141.979 39.6257 151.505C39.5201 156.462 39.3441 160.469 39.2034 163C37.6197 162.719 35.9657 162.332 34.2414 161.84C29.1034 160.364 24.9156 158.29 21.6428 156.286C19.3905 154.88 16.4696 152.806 13.4784 149.888C9.07941 145.565 6.61601 141.452 5.63065 139.694C2.9209 134.878 1.58362 130.379 0.879788 127.04" fill="black"/>
</g>
<defs>
<clipPath id="clip0_1_278">
<rect width="113" height="163" fill="white"/>
</clipPath>
</defs>
</svg>
