<svg width="231" height="86" viewBox="0 0 231 86" fill="none" xmlns="http://www.w3.org/2000/svg">
<g clip-path="url(#clip0_1_39)">
<path d="M56.0649 15.9304C56.0649 14.3506 56.0649 12.7997 56.0649 11.2487C56.0649 9.93993 56.0649 8.62537 56.0707 7.31657C56.0879 3.64964 58.4956 0.778359 62.2363 0C62.2363 3.54586 62.4029 7.09171 62.1788 10.6087C62.0294 12.8919 58.9265 15.3827 56.0707 15.9304H56.0649Z" fill="black"/>
<path d="M18.0601 60.2046V67.9074C15.9168 67.9363 14.2677 67.9074 12.4519 67.9074C4.34985 67.9074 0.298828 64.5 0.298828 57.6792V52.0174C0.298828 45.2024 5.70019 44.1992 13.8022 44.1992H18.0544V51.8329L13.3483 51.856C9.80292 51.9021 9.44091 51.6369 9.49263 54.3755L9.47539 58.5095C9.47539 60.4871 10.2109 60.1585 13.3195 60.2161C14.2447 60.2334 15.5835 60.2046 16.8362 60.2046" fill="black"/>
<path d="M24.0303 41.0743C24.0303 39.2062 23.6568 36.0006 20.778 35.966C17.5084 35.9256 13.5838 36.0236 9.25127 35.989L9.18231 28.2112C11.2854 28.142 13.2621 28.2054 16.003 28.1939C21.8583 28.1766 23.6166 27.9056 26.0472 28.6955C32.3679 30.7538 32.3737 33.9653 32.3737 41.6278V68.0401L24.0303 68.0574V41.0685V41.0743Z" fill="black"/>
<path d="M49.7959 68.0171H40.5734L42.8833 63.543L60.5814 28.1882H68.6777L49.7959 68.0171Z" fill="black"/>
<path d="M41.6594 28.1592H49.9453V43.1383L41.6594 58.6478V28.1592Z" fill="black"/>
<path d="M69.2753 68.0055H60.9894V49.619L69.2753 34.415V68.0055Z" fill="black"/>
<path d="M89.1282 68.0056H87.6457C80.3423 68.0056 76.6935 64.3213 76.6935 56.9586V39.1429C76.6935 31.7802 80.3423 28.0959 87.6457 28.0959H89.1282L88.996 35.9141C86.2321 36.0064 85.0197 36.1102 84.9852 39.852V56.2437C85.0944 60.1816 86.393 60.1297 89.1569 60.222L89.1282 67.9998V68.0056Z" fill="black"/>
<path d="M119.623 43.9283C118.318 43.9053 117.594 43.9168 115.716 43.9629L115.566 57.5179C115.566 59.2533 116.87 60.2104 119.473 60.3776V68.0055H118.359C110.693 68.0055 106.855 64.7191 106.855 58.1463V32.7142C106.855 24.2157 111.061 20.3123 119.468 20.1221V27.8999C116.865 28.5572 115.56 30.0851 115.56 33.3542L115.549 36.1447C117.164 36.1793 117.681 36.1793 119.738 36.1678L119.611 43.9341L119.623 43.9283Z" fill="black"/>
<path d="M124.743 60.1586C127.507 60.0721 128.96 59.2649 128.96 57.4257L129.041 46.5287C129.029 44.0206 127.294 44.1186 124.743 44.061V36.1275C125.587 36.041 127.765 36.041 128.368 36.041C134.902 36.041 136.947 38.6355 137.246 45.2429V58.0657C137.246 64.6904 133.597 68.0056 126.294 68.0056H124.737V60.1586H124.743Z" fill="black"/>
<path d="M154.634 51.9252H151.1V57.8235C151.1 60.6774 151.859 60.1643 154.157 60.2277H154.743V68.0055H152.715C145.906 68.0055 142.504 64.0965 142.504 56.2783V39.2178C142.504 31.8724 146.216 28.1997 153.64 28.1997H154.749V35.9083C152.209 36.0986 151.129 37.7015 151.129 39.6445L151.146 44.1935L154.628 44.2051L154.645 51.9252H154.634Z" fill="black"/>
<path d="M157.783 44.1819H160.213L160.248 39.7078C160.248 37.8628 159.8 36.1965 157.783 35.8794V28.1938H158.449C165.546 28.1938 168.861 31.9127 168.861 39.4483L168.85 51.9251H157.789V44.1819H157.783Z" fill="black"/>
<path d="M184.215 83.9993H176.119L176.228 28.1016L184.41 28.1419L184.215 83.9993Z" fill="black"/>
<path d="M186.898 35.8967V28.1016H192.214C200.31 28.1016 204.355 31.7916 204.355 39.1773V57.045C204.355 64.4307 200.534 68.0227 192.438 68.0227H186.898V60.2449L191.064 60.2218C194.15 60.2218 195.167 58.4749 195.167 56.33V39.8923C195.167 37.7474 194.472 35.937 191.03 35.8909" fill="black"/>
<path d="M218.807 28.1016H210.521V67.9708H218.807V28.1016Z" fill="black"/>
<path d="M48.0606 6.26147C48.3537 6.35372 48.7616 6.4921 49.2271 6.69966C49.7672 6.94182 50.7038 7.35694 51.4738 8.06035C52.4794 8.97708 52.9391 10.1302 53.1574 10.9662C53.2149 11.2141 53.2838 11.5774 53.3356 12.0098C53.3988 12.5287 53.3988 12.9265 53.4045 13.186C53.4103 13.9932 53.416 14.4025 53.4045 15.3885C53.393 17.0028 53.439 17.147 53.4045 18.4385C53.3873 19.113 53.3643 19.655 53.347 19.9952C53.1344 19.9548 52.9103 19.9087 52.6805 19.8395C51.991 19.6377 51.4221 19.3552 50.9796 19.0842C50.6751 18.8939 50.2786 18.6172 49.8764 18.2136C49.2845 17.6313 48.9513 17.072 48.8133 16.8299C48.4456 16.1783 48.2675 15.5672 48.1698 15.1175" fill="#3F8F35"/>
<path d="M222.404 28.1536L230.966 28.1766L231 35.9314H222.415L222.404 28.1536Z" fill="black"/>
<path d="M158.128 60.2278L166.689 60.2508L166.724 68.0056H158.139L158.128 60.2278Z" fill="black"/>
<path d="M124.737 20.1221L133.299 20.1451L133.333 27.8999H124.748L124.737 20.1221Z" fill="black"/>
<path d="M91.9437 60.2278L100.505 60.2508L100.54 68.0056H91.9552L91.9437 60.2278Z" fill="black"/>
<path d="M91.9437 28.1421L100.505 28.1652L100.54 35.9199H91.9552L91.9437 28.1421Z" fill="#020202"/>
<path d="M13.1011 77.6917V83.9128H11.791V78.741H8.80304V83.9128H7.49292V77.6917H13.0954H13.1011Z" fill="#1E1E1C"/>
<path d="M31.6726 77.7437C32.2243 77.7437 32.6552 77.8532 32.9483 78.0723C33.2873 78.3202 33.4539 78.7238 33.4539 79.2658C33.4539 79.9519 33.1149 80.4016 32.4484 80.638C33.2586 80.909 33.6665 81.3933 33.6665 82.0794C33.6665 82.656 33.4884 83.0941 33.1264 83.3997C32.7644 83.6938 32.2243 83.8494 31.5002 83.8494H28.5582V77.7437H31.6726ZM29.7534 80.2344H31.3566C31.6726 80.2344 31.9082 80.1767 32.0863 80.0672C32.276 79.9346 32.3794 79.7386 32.3794 79.4791C32.3794 78.9602 32.0404 78.7123 31.3738 78.7123H29.7477V80.2344H29.7534ZM29.7534 82.8693H31.3911C31.8508 82.8693 32.1783 82.7886 32.3622 82.6329C32.5173 82.5003 32.5978 82.287 32.5978 81.9929C32.5978 81.451 32.1783 81.1915 31.3566 81.1915H29.7534V82.8693Z" fill="#1E1E1C"/>
<path d="M46.9688 80.4995V81.2548H43.1132V80.4995H46.9688Z" fill="#1E1E1C"/>
<path d="M66.701 78.1645C67.1033 78.4585 67.2986 78.8506 67.2986 79.3118C67.2986 79.8711 66.9769 80.3035 66.3448 80.5976C67.1033 80.8051 67.4883 81.2895 67.4883 82.0448C67.4883 82.5694 67.2642 83.0134 66.8332 83.3536C66.3678 83.7053 65.73 83.8898 64.9542 83.8898C64.1785 83.8898 63.5981 83.7053 63.1672 83.3536C62.7247 82.9788 62.4662 82.4656 62.4087 81.8257H63.6211C63.6901 82.235 63.8337 82.5291 64.0406 82.7136C64.2302 82.8865 64.529 82.973 64.9542 82.973C65.3794 82.973 65.7127 82.8808 65.954 82.702C66.1781 82.5175 66.2988 82.2811 66.2988 81.9871C66.2988 81.693 66.1896 81.4509 65.977 81.3068C65.7644 81.1569 65.4541 81.0877 65.0519 81.0877H64.506V80.2113H65.0864C65.3967 80.2113 65.6553 80.1306 65.8391 79.9807C66.0173 79.8308 66.1035 79.652 66.1035 79.4214C66.1035 79.1504 66.0058 78.9428 65.8046 78.8045C65.6035 78.6546 65.3162 78.5911 64.937 78.5911C64.5233 78.5911 64.213 78.6949 64.0004 78.9198C63.8452 79.0812 63.736 79.2945 63.6786 79.5713H62.4662C62.5466 78.9774 62.7879 78.522 63.2131 78.1933C63.6384 77.8531 64.213 77.6802 64.9485 77.6802C65.684 77.6802 66.2586 77.8416 66.6953 78.1587L66.701 78.1645Z" fill="#1E1E1C"/>
<path d="M69.8956 77.7263V80.1306H72.7917V77.7263H74.0731V83.8552H72.7917V81.1626H69.8956V83.8552H68.6143V77.7263H69.8956Z" fill="#1E1E1C"/>
<path d="M76.6301 77.7263V82.0275L79.5607 77.7263H80.911V83.8494H79.6354V79.5367L76.7048 83.8494H75.3545V77.7263H76.6301Z" fill="#1E1E1C"/>
<path d="M83.8072 77.6859V79.6636C83.8072 80.0671 83.8877 80.3785 84.0601 80.5688C84.221 80.736 84.5313 80.8282 84.9565 80.8282C85.3587 80.8282 85.7609 80.7071 86.1747 80.4823C86.3241 80.3843 86.4677 80.292 86.6171 80.1825V77.6802H88.0364V83.8436H86.6171V81.1972C86.5654 81.2203 86.5079 81.2549 86.4677 81.2952C85.8644 81.6758 85.2495 81.866 84.6175 81.866C83.9222 81.866 83.3705 81.6988 82.9683 81.3759C82.5661 81.0415 82.3765 80.5515 82.3765 79.9115V77.6802H83.7958L83.8072 77.6859Z" fill="#1E1E1C"/>
<path d="M102.838 78.2279C103.24 78.6142 103.453 79.1735 103.453 79.9057V83.7514H102.171V82.8981C101.913 83.2037 101.574 83.4458 101.177 83.6303C100.735 83.8148 100.212 83.9071 99.6259 83.9071C98.9192 83.9071 98.3733 83.7456 97.9825 83.4285C97.5516 83.1114 97.3447 82.7078 97.3447 82.2062C97.3447 81.5317 97.6435 81.007 98.2469 80.6437C98.7928 80.292 99.58 80.1191 100.568 80.096L102.08 80.0614V79.8193C102.08 78.9775 101.568 78.5566 100.551 78.5566C100.12 78.5566 99.7696 78.6258 99.5053 78.7642C99.1892 78.9256 98.9939 79.1735 98.9192 79.5079L97.5516 79.4041C97.6952 78.7526 98.063 78.2625 98.6376 77.957C99.1318 77.6802 99.8098 77.5476 100.649 77.5476C101.643 77.5476 102.373 77.7667 102.838 78.2107V78.2279ZM100.66 81.0012C99.3961 81.0243 98.7698 81.4221 98.7698 82.1659C98.7698 82.3965 98.8732 82.5868 99.0973 82.7367C99.3042 82.8866 99.5915 82.9673 99.9477 82.9673C100.534 82.9673 101.028 82.8059 101.447 82.4887C101.867 82.1716 102.085 81.7796 102.085 81.3126V80.9609L100.666 80.9954L100.66 81.0012Z" fill="#1E1E1C"/>
<path d="M109.797 83.8147H108.579V81.347H107.418L106.131 83.8147H104.66L106.119 81.1798C105.981 81.1337 105.855 81.0818 105.751 81.0242C105.246 80.7244 104.993 80.1997 104.993 79.479C104.993 78.8736 105.188 78.4008 105.579 78.0664C105.97 77.732 106.544 77.5706 107.291 77.5706H109.797V83.8205V83.8147ZM106.24 79.4386C106.24 79.7384 106.32 79.9575 106.493 80.1017C106.677 80.2343 106.987 80.3092 107.401 80.3092H108.573V78.6141H107.424C106.631 78.6141 106.24 78.8794 106.24 79.4386Z" fill="#1E1E1C"/>
<path d="M121.14 77.6917V78.7179H119.031V83.7801H117.732V78.7179H115.624V77.6917H121.134H121.14Z" fill="#1E1E1C"/>
<path d="M161.673 77.5879V83.7456H160.42V78.6257H158.651L158.093 81.9236C157.972 82.6155 157.714 83.1056 157.317 83.3996C157.001 83.6245 156.599 83.7456 156.116 83.7456H155.49V82.7078H155.915C156.151 82.7078 156.341 82.6386 156.496 82.5175C156.674 82.3503 156.8 82.0908 156.875 81.7218L157.57 77.5879H161.673Z" fill="#1E1E1C"/>
<path d="M168.166 83.7744H166.839V81.3355H165.575L164.173 83.7744H162.569L164.161 81.1683C164.012 81.1222 163.874 81.0703 163.759 81.0127C163.207 80.7128 162.931 80.1997 162.931 79.479C162.931 78.8794 163.144 78.4124 163.569 78.078C163.994 77.7436 164.621 77.5879 165.437 77.5879H168.166V83.7744ZM164.293 79.4444C164.293 79.7442 164.379 79.9576 164.569 80.1017C164.77 80.2343 165.109 80.3035 165.557 80.3035H166.833V78.6315H165.58C164.713 78.6315 164.287 78.8967 164.287 79.4444H164.293Z" fill="#1E1E1C"/>
<path d="M91.1504 77.6514V80.0787H94.0694V77.6514H95.3566V83.8264H94.0694V81.1165H91.1504V83.8264H89.8633V77.6514H91.1504Z" fill="#1E1E1C"/>
<path d="M134.948 78.5508C135.396 79.1274 135.482 79.7328 135.482 80.6495C135.482 81.5662 135.367 82.2581 134.931 82.8289C134.459 83.4516 133.936 83.613 133.109 83.613C132.391 83.613 131.816 83.4401 131.351 82.7482V85.902H130.167V77.6744H131.276V78.6373C131.69 78.0492 132.115 77.7897 132.919 77.686C133.724 77.5822 134.459 77.9281 134.954 78.5508H134.948ZM131.684 79.1389C131.437 79.5079 131.316 80.0037 131.316 80.6091V80.7129C131.316 81.3471 131.46 81.866 131.776 82.2523C132.046 82.6098 132.402 82.7943 132.85 82.7943C133.431 82.7943 133.856 82.5983 134.138 82.2062C134.385 81.8372 134.517 81.3298 134.517 80.6783C134.517 80.0268 134.396 79.5194 134.172 79.1504C133.89 78.7122 133.465 78.5047 132.885 78.5047C132.374 78.5047 131.966 78.7122 131.69 79.1389H131.684Z" fill="#1E1E1C"/>
<path d="M141.579 77.5995V78.5335L137.804 78.6027L137.85 83.7226L136.746 83.7341L136.689 77.5764L141.573 77.5995H141.579Z" fill="#1E1E1C"/>
<path d="M147.003 78.5163C147.526 79.0871 147.802 79.8193 147.802 80.7072C147.802 81.5951 147.538 82.3158 147.015 82.8751C146.469 83.4574 145.75 83.763 144.86 83.763C143.969 83.763 143.251 83.4574 142.705 82.8751C142.182 82.3158 141.918 81.5836 141.918 80.7072C141.918 79.8308 142.182 79.0871 142.716 78.5163C143.251 77.9339 143.975 77.6399 144.86 77.6399C145.745 77.6399 146.469 77.9339 147.003 78.5163ZM143.555 79.2716C143.28 79.6406 143.159 80.1249 143.159 80.7072C143.159 81.2895 143.285 81.7623 143.555 82.1371C143.866 82.5637 144.297 82.7886 144.86 82.7886C145.423 82.7886 145.854 82.5637 146.17 82.1371C146.446 81.7565 146.584 81.2838 146.584 80.7072C146.584 80.1306 146.446 79.6406 146.17 79.2716C145.848 78.8334 145.417 78.62 144.86 78.62C144.302 78.62 143.866 78.8334 143.555 79.2716Z" fill="#1E1E1C"/>
<path d="M152.456 77.5879C153.031 77.5879 153.479 77.6974 153.784 77.9223C154.134 78.1702 154.312 78.5796 154.312 79.1273C154.312 79.8192 153.962 80.2689 153.266 80.5111C154.111 80.782 154.536 81.2721 154.536 81.964C154.536 82.5463 154.347 82.9903 153.973 83.2959C153.594 83.5957 153.031 83.7456 152.278 83.7456H149.204V77.5879H152.45H152.456ZM150.457 80.1017H152.129C152.456 80.1017 152.703 80.044 152.893 79.9345C153.094 79.8019 153.197 79.6001 153.197 79.3406C153.197 78.816 152.841 78.568 152.152 78.568H150.457V80.1017ZM150.457 82.7596H152.163C152.646 82.7596 152.985 82.6789 153.174 82.5233C153.341 82.3907 153.422 82.1773 153.422 81.8775C153.422 81.3298 152.985 81.0646 152.129 81.0646H150.457V82.7539V82.7596Z" fill="#1E1E1C"/>
<path d="M127.512 78.5451C128.035 79.1159 128.311 79.8481 128.311 80.736C128.311 81.6239 128.046 82.3446 127.524 82.9039C126.978 83.4862 126.259 83.7918 125.369 83.7918C124.478 83.7918 123.76 83.4862 123.214 82.9039C122.691 82.3446 122.427 81.6124 122.427 80.736C122.427 79.8596 122.691 79.1159 123.225 78.5451C123.76 77.9627 124.484 77.6687 125.369 77.6687C126.254 77.6687 126.978 77.9627 127.512 78.5451ZM124.064 79.3004C123.789 79.6694 123.668 80.1537 123.668 80.736C123.668 81.3183 123.794 81.7911 124.064 82.1659C124.375 82.5925 124.806 82.8174 125.369 82.8174C125.932 82.8174 126.363 82.5925 126.679 82.1659C126.955 81.7853 127.093 81.3126 127.093 80.736C127.093 80.1594 126.955 79.6694 126.679 79.3004C126.357 78.8622 125.926 78.6489 125.369 78.6489C124.811 78.6489 124.375 78.8622 124.064 79.3004Z" fill="#1E1E1C"/>
<path d="M53.8986 78.6489C54.3468 79.2255 54.433 79.8309 54.433 80.7476C54.433 81.6644 54.3181 82.3562 53.8814 82.927C53.4102 83.5497 52.8873 83.7112 52.0599 83.7112C51.3416 83.7112 50.767 83.5382 50.3016 82.8463V86.0001H49.1179V77.7726H50.2269V78.7354C50.6406 78.1473 51.0658 77.8879 51.8702 77.7841C52.6747 77.6803 53.4102 78.0263 53.9044 78.6489H53.8986ZM50.6348 79.237C50.3878 79.606 50.2671 80.1019 50.2671 80.7073V80.8111C50.2671 81.4453 50.4107 81.9642 50.7268 82.3505C50.9968 82.7079 51.3531 82.8924 51.8013 82.8924C52.3817 82.8924 52.8069 82.6964 53.0884 82.3044C53.3355 81.9354 53.4677 81.428 53.4677 80.7765C53.4677 80.1249 53.347 79.6176 53.1229 79.2486C52.8413 78.8104 52.4161 78.6028 51.8358 78.6028C51.3244 78.6028 50.9164 78.8104 50.6406 79.237H50.6348Z" fill="#1E1E1C"/>
<path d="M60.4435 78.5624C60.9664 79.1332 61.2422 79.8654 61.2422 80.7533C61.2422 81.6412 60.9779 82.362 60.455 82.9212C59.9091 83.5035 59.1908 83.8091 58.3002 83.8091C57.4095 83.8091 56.6913 83.5035 56.1454 82.9212C55.6225 82.362 55.3582 81.6297 55.3582 80.7533C55.3582 79.877 55.6225 79.1332 56.1569 78.5624C56.6913 77.9801 57.4153 77.686 58.3002 77.686C59.1851 77.686 59.9091 77.9801 60.4435 78.5624ZM56.9958 79.3177C56.72 79.6867 56.5993 80.171 56.5993 80.7533C56.5993 81.3357 56.7257 81.8084 56.9958 82.1832C57.3061 82.6099 57.7371 82.8347 58.3002 82.8347C58.8633 82.8347 59.2943 82.6099 59.6103 82.1832C59.8861 81.8027 60.024 81.3299 60.024 80.7533C60.024 80.1768 59.8861 79.6867 59.6103 79.3177C59.2885 78.8795 58.8575 78.6662 58.3002 78.6662C57.7428 78.6662 57.3061 78.8795 56.9958 79.3177Z" fill="#1E1E1C"/>
<path d="M19.6058 77.7378V78.7871H17.6061V83.9589H16.3707V78.7871H14.371V77.7378H19.6058Z" fill="#1E1E1C"/>
<path d="M25.6047 78.6085C26.1276 79.1793 26.4034 79.9116 26.4034 80.7995C26.4034 81.6874 26.1391 82.4081 25.6162 82.9674C25.0703 83.5497 24.3521 83.8553 23.4614 83.8553C22.5708 83.8553 21.8525 83.5497 21.3066 82.9674C20.7837 82.4081 20.5194 81.6759 20.5194 80.7995C20.5194 79.9231 20.7837 79.1793 21.3181 78.6085C21.8525 78.0262 22.5765 77.7322 23.4614 77.7322C24.3463 77.7322 25.0703 78.0262 25.6047 78.6085ZM22.1571 79.3638C21.8812 79.7328 21.7606 80.2172 21.7606 80.7995C21.7606 81.3818 21.887 81.8546 22.1571 82.2294C22.4673 82.656 22.8983 82.8809 23.4614 82.8809C24.0245 82.8809 24.4555 82.656 24.7715 82.2294C25.0474 81.8488 25.1853 81.376 25.1853 80.7995C25.1853 80.2229 25.0474 79.7328 24.7715 79.3638C24.4498 78.9257 24.0188 78.7123 23.4614 78.7123C22.9041 78.7123 22.4673 78.9257 22.1571 79.3638Z" fill="#1E1E1C"/>
<path d="M39.9356 78.6142C40.4585 79.185 40.7343 79.9172 40.7343 80.8051C40.7343 81.693 40.47 82.4137 39.9471 82.973C39.4012 83.5553 38.6829 83.8609 37.7923 83.8609C36.9016 83.8609 36.1834 83.5553 35.6375 82.973C35.1146 82.4137 34.8503 81.6815 34.8503 80.8051C34.8503 79.9287 35.1146 79.185 35.649 78.6142C36.1834 78.0318 36.9074 77.7378 37.7923 77.7378C38.6772 77.7378 39.4012 78.0318 39.9356 78.6142ZM36.4879 79.3695C36.2121 79.7385 36.0914 80.2228 36.0914 80.8051C36.0914 81.3874 36.2179 81.8602 36.4879 82.235C36.7982 82.6616 37.2292 82.8865 37.7923 82.8865C38.3554 82.8865 38.7864 82.6616 39.1024 82.235C39.3782 81.8544 39.5161 81.3817 39.5161 80.8051C39.5161 80.2285 39.3782 79.7385 39.1024 79.3695C38.7806 78.9313 38.3497 78.7179 37.7923 78.7179C37.2349 78.7179 36.7982 78.9313 36.4879 79.3695Z" fill="#1E1E1C"/>
<path d="M5.18555 78.8588C5.71875 79.4181 6 80.1356 6 81.0056C6 81.8757 5.73047 82.5819 5.19727 83.1299C4.64062 83.7006 3.9082 84 3 84C2.0918 84 1.35938 83.7006 0.802734 83.1299C0.269531 82.5819 0 81.8644 0 81.0056C0 80.1469 0.269531 79.4181 0.814453 78.8588C1.35938 78.2881 2.09766 78 3 78C3.90234 78 4.64062 78.2881 5.18555 78.8588ZM1.66992 79.5989C1.38867 79.9605 1.26562 80.435 1.26562 81.0056C1.26562 81.5763 1.39453 82.0395 1.66992 82.4068C1.98633 82.8249 2.42578 83.0452 3 83.0452C3.57422 83.0452 4.01367 82.8249 4.33594 82.4068C4.61719 82.0339 4.75781 81.5706 4.75781 81.0056C4.75781 80.4407 4.61719 79.9605 4.33594 79.5989C4.00781 79.1695 3.56836 78.9605 3 78.9605C2.43164 78.9605 1.98633 79.1695 1.66992 79.5989Z" fill="#1E1E1C"/>
</g>
<defs>
<clipPath id="clip0_1_39">
<rect width="231" height="86" fill="white"/>
</clipPath>
</defs>
</svg>
