<svg width="18" height="18" viewBox="0 0 18 18" fill="none" xmlns="http://www.w3.org/2000/svg">
<path d="M3.82823 9.70312C4.70323 10.5781 5.76573 11.0156 7.01573 11.0156C8.26573 11.0156 9.32823 10.5781 10.2032 9.70312C11.0782 8.82812 11.5157 7.76562 11.5157 6.51562C11.5157 5.26562 11.0782 4.20313 10.2032 3.32812C9.32823 2.45312 8.26573 2.01562 7.01573 2.01562C5.76573 2.01562 4.70323 2.45312 3.82823 3.32812C2.95323 4.20313 2.51573 5.26562 2.51573 6.51562C2.51573 7.76562 2.95323 8.82812 3.82823 9.70312ZM13.0157 11.0156L17.9845 15.9844L16.4845 17.4844L11.5157 12.5156V11.7188L11.2345 11.4375C10.047 12.4688 8.64073 12.9844 7.01573 12.9844C5.20323 12.9844 3.65636 12.3594 2.37511 11.1094C1.12511 9.85938 0.500107 8.32812 0.500107 6.51562C0.500107 4.70312 1.12511 3.17188 2.37511 1.92188C3.65636 0.640625 5.20323 0 7.01573 0C8.82823 0 10.3595 0.640625 11.6095 1.92188C12.8595 3.17188 13.4845 4.70312 13.4845 6.51562C13.4845 7.17188 13.3282 7.92188 13.0157 8.76562C12.7032 9.57812 12.3439 10.2344 11.9376 10.7344L12.2189 11.0156H13.0157Z" fill="#183150"/>
</svg>
