<svg width="21" height="20" viewBox="0 0 21 20" fill="none" xmlns="http://www.w3.org/2000/svg">
<path d="M15.6097 16.6094C16.0159 16.2031 16.4847 16 17.0159 16C17.5472 16 18.0003 16.2031 18.3753 16.6094C18.7816 17.0156 18.9847 17.4844 18.9847 18.0156C18.9847 18.5469 18.7816 19.0156 18.3753 19.4219C18.0003 19.7969 17.5472 19.9844 17.0159 19.9844C16.4847 19.9844 16.0159 19.7969 15.6097 19.4219C15.2034 19.0156 15.0003 18.5469 15.0003 18.0156C15.0003 17.4844 15.2034 17.0156 15.6097 16.6094ZM0.98468 0.015625H4.26593L5.20343 1.98438H20.0159C20.2972 1.98438 20.5316 2.09375 20.7191 2.3125C20.9066 2.5 21.0003 2.73438 21.0003 3.01562C21.0003 3.04688 20.9534 3.20312 20.8597 3.48438L17.2972 9.95312C16.9222 10.6406 16.3441 10.9844 15.5628 10.9844H8.10968L7.21906 12.625L7.17218 12.7656C7.17218 12.9219 7.25031 13 7.40656 13H18.9847V15.0156H6.98468C6.45343 15.0156 5.98468 14.8125 5.57843 14.4062C5.20343 14 5.01593 13.5312 5.01593 13C5.01593 12.6875 5.09406 12.375 5.25031 12.0625L6.60968 9.57812L3.00031 1.98438H0.98468V0.015625ZM5.57843 16.6094C5.98468 16.2031 6.45343 16 6.98468 16C7.51593 16 7.98468 16.2031 8.39093 16.6094C8.79718 17.0156 9.00031 17.4844 9.00031 18.0156C9.00031 18.5469 8.79718 19.0156 8.39093 19.4219C7.98468 19.7969 7.51593 19.9844 6.98468 19.9844C6.45343 19.9844 5.98468 19.7969 5.57843 19.4219C5.20343 19.0156 5.01593 18.5469 5.01593 18.0156C5.01593 17.4844 5.20343 17.0156 5.57843 16.6094Z" fill="black"/>
</svg>
