<svg width="16" height="15" viewBox="0 0 16 15" fill="none" xmlns="http://www.w3.org/2000/svg">
<path fill-rule="evenodd" clip-rule="evenodd" d="M7.97425 8.41799C9.10899 8.41879 10.1976 7.9752 11.0007 7.18478C11.8038 6.39436 12.2556 5.32181 12.2568 4.20299C12.2568 1.875 10.3377 0 7.97425 0C5.60932 0 3.69167 1.88775 3.69167 4.20224C3.69167 6.51749 5.60932 8.41799 7.97425 8.41799ZM0.565302 15H15.4357C15.5099 15.0006 15.5835 14.9866 15.6522 14.9589C15.7209 14.9312 15.7834 14.8903 15.8359 14.8386C15.8884 14.7869 15.93 14.7254 15.9582 14.6577C15.9864 14.59 16.0006 14.5174 16.0001 14.4442C16.0001 11.5342 13.5964 9.15524 10.6275 9.15524H5.37275C2.41754 9.15524 0.00012207 11.5215 0.00012207 14.4442C0.00012207 14.754 0.249623 15 0.565302 15Z" fill="black"/>
</svg>
